<svg width="230" height="94" viewBox="0 0 230 94" fill="none" xmlns="http://www.w3.org/2000/svg">
<g clip-path="url(#clip0_208_1195)">
<path d="M24.3772 26.4789V22.5894C24.3772 17.3701 22.5061 14.7105 19.8256 14.7105C15.356 14.6281 14.3002 17.0642 14.3002 21.0654L14.2181 51.3043C14.2181 54.7289 15.6024 56.7707 19.3387 56.7707C24.213 56.7707 24.6177 51.7162 24.6177 47.9444V42.3956H38.9179V49.8921C38.9179 60.4071 32.9057 67.7447 18.2829 67.7447C5.12063 67.7447 0 60.7308 0 48.2504V23.1602C0 9.87368 6.09431 3.67762 19.1745 3.67762C31.3631 3.67762 38.6775 8.89102 38.6775 21.3655V26.4789H24.3772Z" fill="#1C2128"/>
<path d="M57.9282 32.0394L57.764 32.2042L59.0661 66.2737H45.4991V5.14278H60.204L71.2547 39.2711H71.4952L70.1168 5.14278H83.6838V66.2737H69.061L57.9282 32.0394Z" fill="#1C2128"/>
<path d="M103.099 32.0394L102.94 32.2042L104.237 66.2737H90.6697V5.14278H105.375L116.425 39.2711H116.672L115.287 5.14278H128.854V66.2737H114.232L103.099 32.0394Z" fill="#1C2128"/>
<path d="M136.415 66.4914V94.0177H163.737V93.9C163.735 86.6312 160.856 79.6607 155.733 74.5209C150.609 69.3811 143.661 66.493 136.415 66.4914Z" fill="#1C2128"/>
<path d="M136.415 43.9079V57.0767C146.145 57.0876 155.474 60.9701 162.354 67.8723C169.235 74.7745 173.105 84.1329 173.116 93.8941C173.116 93.9353 173.116 93.9765 173.116 94.0118H186.231V93.8941C186.223 80.6413 180.973 67.9335 171.633 58.5612C162.292 49.189 149.626 43.9188 136.415 43.9079Z" fill="#1C2128"/>
<path d="M136.415 22.2658V35.4228C151.865 35.44 166.678 41.6046 177.602 52.5642C188.527 63.5237 194.672 78.3832 194.689 93.8823C194.689 93.9235 194.689 93.9647 194.689 94H207.811V93.8823C207.789 74.8941 200.26 56.6899 186.875 43.2638C173.49 29.8376 155.343 22.286 136.415 22.2658Z" fill="#1C2128"/>
<path d="M136.415 0V13.1629C180.782 13.1629 216.879 49.3743 216.879 93.8823V94H230V93.8823C230 42.1191 188.014 0 136.415 0Z" fill="#EE5253"/>
<path d="M3.68942 93.1233V73.3229H7.62521V90.2224H14.9396V93.1233H3.68942Z" fill="#EE5253"/>
<path d="M17.7785 93.1233V73.3229H21.7025V93.1233H17.7785Z" fill="#EE5253"/>
<path d="M34.507 73.3229H38.7126L34.1551 93.1233H28.8761L24.1837 73.3229H28.401L30.8762 86.021C31.0908 87.1402 31.2493 88.2694 31.3514 89.4044C31.4388 89.9461 31.4956 90.4922 31.5215 91.0403H31.5801C31.6059 90.4922 31.6627 89.9461 31.7502 89.4044C31.8522 88.2694 32.0108 87.1402 32.2253 86.021L34.507 73.3229Z" fill="#EE5253"/>
<path d="M41.0589 93.1233V73.3229H52.1624V76.2297H45.0181V81.2019H51.6169V84.144H45.0181V90.2459H52.1624V93.1468L41.0589 93.1233Z" fill="#EE5253"/>
<path d="M71.7005 73.3229H75.6656V93.1233H71.5597L68.4979 86.0622C67.3882 83.5047 66.4477 80.8766 65.6824 78.1951H65.6297C65.7704 79.8309 65.9405 81.8374 66.052 83.8439C66.1634 85.8504 66.2455 87.8039 66.2455 89.3927V93.1115H62.3098V73.3229H66.3863L69.454 80.5311C70.5601 83.0894 71.4986 85.7173 72.2636 88.3982H72.3222C72.1815 86.633 72.0407 84.6736 71.9234 82.7788C71.8061 80.8841 71.7298 78.9718 71.7298 77.2065L71.7005 73.3229Z" fill="#EE5253"/>
<path d="M79.3492 93.1233V73.3229H90.4233V76.2297H83.2908V81.2019H89.8602V84.144H83.2908V90.2459H90.4292V93.1468L79.3492 93.1233Z" fill="#EE5253"/>
<path d="M107.07 83.5556C107.463 85.5385 107.656 88.0687 107.938 90.6166H107.997C108.049 90.14 108.079 89.6634 108.137 89.1926C108.278 87.498 108.442 85.8092 108.724 84.1204L110.302 73.3229H114.378L110.466 93.1233H105.744L104.172 85.3208C103.75 83.2378 103.586 81.1254 103.328 79.013H103.269C102.993 81.1254 102.852 83.2378 102.43 85.3208L101.022 93.135H96.3299L92.312 73.3347H96.3827L98.1424 84.1322C98.4239 85.821 98.594 87.5097 98.729 89.2044C98.7876 89.6751 98.8111 90.1517 98.8404 90.6284H98.8991C99.2099 88.0923 99.4035 85.5621 99.7965 83.5673L101.709 73.3229H104.97L107.07 83.5556Z" fill="#EE5253"/>
<path d="M124.977 79.3425C125.007 77.5772 124.837 75.812 122.672 75.812C121.352 75.812 120.508 76.3121 120.508 77.6596C120.508 79.1601 121.517 79.7426 122.754 80.484C124.431 81.4358 126.029 82.52 127.535 83.7262C128.127 84.2285 128.594 84.8622 128.899 85.5772C129.205 86.2921 129.34 87.0686 129.294 87.8451C129.294 91.5934 126.649 93.5469 122.801 93.5469C118.109 93.5469 116.39 91.0638 116.39 87.5274V86.074H120.326V87.2508C120.244 89.175 120.86 90.5754 122.801 90.5754C124.461 90.5754 125.247 89.7575 125.247 88.2511C125.248 87.7125 125.101 87.184 124.823 86.7233C124.544 86.2626 124.145 85.8874 123.669 85.6386C121.616 84.1322 119.059 83.0495 117.458 81.0724C116.817 80.1889 116.465 79.1284 116.449 78.0362C116.449 74.6586 118.472 72.811 122.631 72.811C128.901 72.811 128.731 77.3477 128.761 79.2836L124.977 79.3425Z" fill="#EE5253"/>
</g>
<defs>
<clipPath id="clip0_208_1195">
<rect width="230" height="94" fill="white"/>
</clipPath>
</defs>
</svg>
