<svg width="102" height="42" viewBox="0 0 102 42" fill="none" xmlns="http://www.w3.org/2000/svg">
<path d="M10.8108 11.831V10.0931C10.8108 7.76112 9.98098 6.57277 8.79221 6.57277C6.81006 6.53596 6.34183 7.62441 6.34183 9.4122L6.30542 22.9232C6.30542 24.4533 6.91931 25.3656 8.5763 25.3656C10.7379 25.3656 10.9174 23.1072 10.9174 21.422V18.9427H17.2593V22.2922C17.2593 26.9904 14.593 30.2689 8.10808 30.2689C2.27089 30.2689 0 27.135 0 21.5587V10.3482C0 4.41164 2.70269 1.64319 8.50347 1.64319C13.9089 1.64319 17.1526 3.97258 17.1526 9.54629V11.831H10.8108Z" fill="#EE5253"/>
<path d="M25.6899 14.3155L25.6171 14.3891L26.1945 29.6117H20.1779V2.29785H26.6992L31.5999 17.5467H31.7066L31.0953 2.29785H37.112V29.6117H30.6271L25.6899 14.3155Z" fill="#EE5253"/>
<path d="M45.7221 14.3155L45.6519 14.3891L46.2268 29.6117H40.2101V2.29785H46.7314L51.6321 17.5467H51.7414L51.1275 2.29785H57.1442V29.6117H50.6593L45.7221 14.3155Z" fill="#EE5253"/>
<path d="M60.4972 29.7089V42.0079H72.6138V41.9553C72.6131 38.7076 71.3363 35.5931 69.0642 33.2966C66.792 31.0001 63.7105 29.7096 60.4972 29.7089Z" fill="#EE5253"/>
<path d="M60.4972 19.6184V25.5024C64.8124 25.5072 68.9494 27.2419 72.0007 30.3259C75.052 33.4099 76.7684 37.5913 76.7732 41.9527C76.7732 41.9711 76.7732 41.9895 76.7732 42.0053H82.5896V41.9527C82.5861 36.0312 80.2576 30.3533 76.1154 26.1657C71.9731 21.9781 66.3559 19.6233 60.4972 19.6184Z" fill="#EE5253"/>
<path d="M60.4972 9.94855V15.8272C67.349 15.8349 73.9179 18.5893 78.7628 23.4861C83.6078 28.3829 86.333 35.0223 86.3406 41.9474C86.3406 41.9658 86.3406 41.9842 86.3406 42H92.1595V41.9474C92.1499 33.4633 88.8109 25.3296 82.875 19.3306C76.9392 13.3317 68.8914 9.95759 60.4972 9.94855Z" fill="#EE5253"/>
<path d="M60.4972 0V5.88131C80.173 5.88131 96.1811 22.0608 96.1811 41.9474V42H102V41.9474C102 18.8192 83.3803 0 60.4972 0Z" fill="white"/>
<path d="M1.63623 41.6083V32.7613H3.38167V40.3121H6.62542V41.6083H1.63623Z" fill="white"/>
<path d="M7.8844 41.6083V32.7613H9.62463V41.6083H7.8844Z" fill="white"/>
<path d="M15.3032 32.7613H17.1683L15.1471 41.6083H12.806L10.725 32.7613H12.5953L13.693 38.4349C13.7881 38.935 13.8585 39.4395 13.9037 39.9467C13.9425 40.1887 13.9677 40.4327 13.9791 40.6776H14.0051C14.0166 40.4327 14.0418 40.1887 14.0806 39.9467C14.1258 39.4395 14.1961 38.935 14.2913 38.4349L15.3032 32.7613Z" fill="white"/>
<path d="M18.2087 41.6083V32.7613H23.1329V34.0601H19.9646V36.2817H22.891V37.5963H19.9646V40.3226H23.1329V41.6188L18.2087 41.6083Z" fill="white"/>
<path d="M31.7976 32.7613H33.5561V41.6083H31.7352L30.3774 38.4533C29.8853 37.3106 29.4682 36.1364 29.1288 34.9382H29.1054C29.1678 35.6691 29.2432 36.5656 29.2927 37.4622C29.3421 38.3587 29.3785 39.2316 29.3785 39.9414V41.603H27.6331V32.7613H29.4409L30.8014 35.982C31.2919 37.125 31.7081 38.2992 32.0474 39.4971H32.0734C32.011 38.7084 31.9485 37.8329 31.8965 36.9863C31.8445 36.1397 31.8107 35.2853 31.8107 34.4965L31.7976 32.7613Z" fill="white"/>
<path d="M35.1896 41.6083V32.7613H40.1007V34.0601H36.9376V36.2817H39.851V37.5963H36.9376V40.3226H40.1033V41.6188L35.1896 41.6083Z" fill="white"/>
<path d="M47.4831 37.3333C47.6574 38.2194 47.7432 39.3499 47.8681 40.4883H47.8941C47.9175 40.2753 47.9305 40.0624 47.9565 39.852C48.0189 39.0948 48.0918 38.3403 48.2166 37.5857L48.9164 32.7613H50.7242L48.9892 41.6083H46.8952L46.1981 38.1221C46.0108 37.1914 45.9379 36.2475 45.8235 35.3037H45.7975C45.6752 36.2475 45.6128 37.1914 45.4255 38.1221L44.8012 41.6135H42.7202L40.9384 32.7666H42.7436L43.524 37.591C43.6489 38.3455 43.7243 39.1001 43.7841 39.8573C43.8101 40.0676 43.8205 40.2806 43.8335 40.4935H43.8596C43.9974 39.3604 44.0833 38.2299 44.2575 37.3386L45.1055 32.7613H46.5518L47.4831 37.3333Z" fill="white"/>
<path d="M55.4247 35.4509C55.4377 34.6622 55.3622 33.8734 54.4024 33.8734C53.8171 33.8734 53.4425 34.0969 53.4425 34.699C53.4425 35.3694 53.8899 35.6297 54.4388 35.9609C55.1824 36.3862 55.8913 36.8706 56.5588 37.4096C56.8214 37.634 57.0286 37.9172 57.1641 38.2366C57.2995 38.5561 57.3595 38.903 57.3392 39.25C57.3392 40.9247 56.166 41.7976 54.4596 41.7976C52.3786 41.7976 51.6165 40.6881 51.6165 39.108V38.4586H53.3619V38.9844C53.3255 39.8441 53.5986 40.4699 54.4596 40.4699C55.1958 40.4699 55.5443 40.1044 55.5443 39.4314C55.5446 39.1907 55.4795 38.9546 55.3561 38.7487C55.2327 38.5429 55.0558 38.3752 54.8446 38.264C53.9342 37.591 52.8 37.1072 52.0899 36.2239C51.8059 35.8291 51.6496 35.3553 51.6425 34.8672C51.6425 33.3581 52.5399 32.5326 54.3842 32.5326C57.1649 32.5326 57.0895 34.5596 57.1025 35.4246L55.4247 35.4509Z" fill="white"/>
</svg>
