<svg width="24" height="24" viewBox="0 0 24 24" fill="none" xmlns="http://www.w3.org/2000/svg">
<path d="M21.3182 7.141L20.8246 6.2844C20.4513 5.63657 20.2647 5.31266 19.9471 5.18349C19.6295 5.05433 19.2703 5.15625 18.552 5.36009L17.3318 5.70379C16.8732 5.80955 16.392 5.74955 15.9733 5.5344L15.6364 5.34003C15.2773 5.11004 15.0011 4.77094 14.8482 4.37235L14.5143 3.37497C14.2947 2.71495 14.1849 2.38494 13.9235 2.19618C13.6622 2.00742 13.315 2.00742 12.6206 2.00742H11.5058C10.8115 2.00742 10.4643 2.00742 10.2029 2.19618C9.94158 2.38494 9.83179 2.71495 9.61222 3.37497L9.27826 4.37235C9.12538 4.77094 8.84918 5.11004 8.4901 5.34003L8.15322 5.5344C7.73447 5.74955 7.25332 5.80955 6.79471 5.70379L5.57448 5.36009C4.85614 5.15625 4.49698 5.05433 4.1794 5.18349C3.86182 5.31266 3.67518 5.63657 3.30188 6.2844L2.8083 7.141C2.45839 7.74825 2.28343 8.05188 2.31739 8.3751C2.35134 8.69832 2.58556 8.95879 3.05399 9.47973L4.08503 10.6324C4.33703 10.9514 4.51594 11.5074 4.51594 12.0073C4.51594 12.5074 4.33709 13.0632 4.08506 13.3823L3.05399 14.535C2.58556 15.056 2.35135 15.3164 2.31739 15.6397C2.28343 15.9629 2.45839 16.2665 2.8083 16.8737L3.30187 17.7303C3.67516 18.3781 3.86182 18.7021 4.1794 18.8312C4.49698 18.9604 4.85615 18.8585 5.5745 18.6546L6.79467 18.3109C7.25336 18.2051 7.7346 18.2652 8.1534 18.4804L8.49023 18.6748C8.84924 18.9048 9.12537 19.2438 9.27823 19.6424L9.61222 20.6399C9.83179 21.2999 9.94158 21.6299 10.2029 21.8187C10.4643 22.0074 10.8115 22.0074 11.5058 22.0074H12.6206C13.315 22.0074 13.6622 22.0074 13.9235 21.8187C14.1849 21.6299 14.2947 21.2999 14.5143 20.6399L14.8483 19.6424C15.0011 19.2438 15.2772 18.9048 15.6363 18.6748L15.9731 18.4804C16.3919 18.2652 16.8731 18.2051 17.3318 18.3109L18.552 18.6546C19.2703 18.8585 19.6295 18.9604 19.9471 18.8312C20.2647 18.7021 20.4513 18.3781 20.8246 17.7303L21.3182 16.8737C21.6681 16.2665 21.843 15.9629 21.8091 15.6397C21.7751 15.3164 21.5409 15.056 21.0725 14.535L20.0414 13.3823C19.7894 13.0632 19.6105 12.5074 19.6105 12.0073C19.6105 11.5074 19.7895 10.9514 20.0414 10.6324L21.0725 9.47973C21.5409 8.95879 21.7751 8.69832 21.8091 8.3751C21.843 8.05188 21.6681 7.74825 21.3182 7.141Z" stroke="#5C5C5C" stroke-width="1.2" stroke-linecap="round"/>
<path d="M15.5195 12C15.5195 13.933 13.9525 15.5 12.0195 15.5C10.0865 15.5 8.51953 13.933 8.51953 12C8.51953 10.067 10.0865 8.5 12.0195 8.5C13.9525 8.5 15.5195 10.067 15.5195 12Z" stroke="#5C5C5C" stroke-width="1.2"/>
</svg>
