<svg width="13" height="13" viewBox="0 0 13 13" fill="none" xmlns="http://www.w3.org/2000/svg">
<path d="M6.77038 1.08354H6.9181C8.68458 1.08354 9.56782 1.08354 10.1812 1.51571C10.357 1.63952 10.513 1.78637 10.6445 1.95177C11.1037 2.52907 11.1037 3.36036 11.1037 5.02294V6.40173C11.1037 8.0068 11.1037 8.80928 10.8497 9.45023C10.4414 10.4807 9.57779 11.2935 8.48292 11.6778C7.80193 11.9169 6.94924 11.9169 5.24387 11.9169C4.26937 11.9169 3.78213 11.9169 3.39297 11.7803C2.76736 11.5607 2.27388 11.0962 2.04053 10.5074C1.89539 10.1411 1.89539 9.68255 1.89539 8.76535V6.50021" stroke="#BFBFBF" stroke-width="1.2" stroke-linecap="round" stroke-linejoin="round"/>
<path d="M11.1042 6.5C11.1042 7.49715 10.2958 8.30554 9.29863 8.30554C8.93799 8.30554 8.51283 8.24238 8.16216 8.3363C7.85065 8.41977 7.60727 8.66315 7.5238 8.97466C7.42988 9.32533 7.49304 9.75049 7.49304 10.1111C7.49304 11.1083 6.68465 11.9167 5.6875 11.9167" stroke="#BFBFBF" stroke-width="1.2" stroke-linecap="round" stroke-linejoin="round"/>
<path d="M2.4375 2.4375C2.70375 2.16358 3.41238 1.08334 3.79167 1.08334M3.79167 1.08334C4.17096 1.08334 4.87959 2.16358 5.14583 2.4375M3.79167 1.08334V5.41667" stroke="#BFBFBF" stroke-width="1.2" stroke-linecap="round" stroke-linejoin="round"/>
</svg>
